<svg xmlns="http://www.w3.org/2000/svg" viewBox="0 0 512 512">
  <defs>
    <linearGradient id="bg" x1="0%" y1="0%" x2="100%" y2="100%">
      <stop offset="0%" style="stop-color:#e63946"/>
      <stop offset="100%" style="stop-color:#6366f1"/>
    </linearGradient>
    <linearGradient id="brain" x1="0%" y1="0%" x2="100%" y2="100%">
      <stop offset="0%" style="stop-color:#ffffff"/>
      <stop offset="100%" style="stop-color:#fadadd"/>
    </linearGradient>
    <filter id="glow">
      <feGaussianBlur stdDeviation="8" result="blur"/>
      <feMerge>
        <feMergeNode in="blur"/>
        <feMergeNode in="SourceGraphic"/>
      </feMerge>
    </filter>
  </defs>
  <circle cx="256" cy="256" r="240" fill="url(#bg)"/>
  <g transform="translate(256,256) scale(0.55)" filter="url(#glow)">
    <path d="M-8,-140 C-70,-140 -130,-100 -140,-40 C-148,10 -120,50 -90,70 C-100,95 -95,125 -70,140 C-45,155 -15,150 0,135 C15,150 45,155 70,140 C95,125 100,95 90,70 C120,50 148,10 140,-40 C130,-100 70,-140 8,-140 Z" fill="url(#brain)" opacity="0.95"/>
    <path d="M0,-130 C0,-50 -20,20 0,135" stroke="#e63946" stroke-width="4" fill="none" opacity="0.6"/>
    <path d="M-60,-110 C-30,-60 -50,0 -60,80" stroke="#e63946" stroke-width="3" fill="none" opacity="0.4"/>
    <path d="M60,-110 C30,-60 50,0 60,80" stroke="#6366f1" stroke-width="3" fill="none" opacity="0.4"/>
    <path d="M-100,-40 C-60,-20 -40,20 -70,90" stroke="#e63946" stroke-width="2.5" fill="none" opacity="0.3"/>
    <path d="M100,-40 C60,-20 40,20 70,90" stroke="#6366f1" stroke-width="2.5" fill="none" opacity="0.3"/>
    <circle cx="-40" cy="-80" r="6" fill="#e63946" opacity="0.7"/>
    <circle cx="40" cy="-80" r="6" fill="#6366f1" opacity="0.7"/>
    <circle cx="-70" cy="20" r="5" fill="#e63946" opacity="0.6"/>
    <circle cx="70" cy="20" r="5" fill="#6366f1" opacity="0.6"/>
    <circle cx="-30" cy="60" r="4" fill="#e63946" opacity="0.5"/>
    <circle cx="30" cy="60" r="4" fill="#6366f1" opacity="0.5"/>
    <circle cx="0" cy="-40" r="5" fill="#f4d03f" opacity="0.8"/>
    <line x1="-40" y1="-80" x2="0" y2="-40" stroke="#f4d03f" stroke-width="1.5" opacity="0.4"/>
    <line x1="40" y1="-80" x2="0" y2="-40" stroke="#f4d03f" stroke-width="1.5" opacity="0.4"/>
    <line x1="0" y1="-40" x2="-30" y2="60" stroke="#f4d03f" stroke-width="1" opacity="0.3"/>
    <line x1="0" y1="-40" x2="30" y2="60" stroke="#f4d03f" stroke-width="1" opacity="0.3"/>
  </g>
</svg>
